<?xml version="1.0" encoding="utf-8"?>
<!-- Generator: Adobe Illustrator 24.0.2, SVG Export Plug-In . SVG Version: 6.00 Build 0)  -->
<svg version="1.1" id="Layer_1" xmlns="http://www.w3.org/2000/svg" xmlns:xlink="http://www.w3.org/1999/xlink" x="0px" y="0px"
	 viewBox="0 0 500 500" style="enable-background:new 0 0 500 500;" xml:space="preserve">
<style type="text/css">
	.st0{fill:#D7DF23;stroke:#000000;stroke-width:8.7468;stroke-miterlimit:10;}
	.st1{fill:none;stroke:#000000;stroke-width:1.7113;stroke-miterlimit:10;}
</style>
<rect x="84.67" y="84.95" transform="matrix(0.6766 -0.7364 0.7364 0.6766 -106.9872 263.4958)" class="st0" width="323.63" height="337.2"/>
<g>
	<g>
		<path d="M318.19,200.03c-0.38-0.41-0.76-0.82-1.14-1.23c0.51-0.47,0.95-1.11,1.56-1.37c1.67-0.71,3.9-3.56,2.92-5.69
			c-0.43-0.93-0.48-2.04-0.71-3.08l0.13-0.1c0.68,1.91,1.37,3.82,2.11,5.89c2.02,0.18,2.44-0.8,1.33-3.95
			c-0.6-0.14-1.2-0.28-1.88-0.43c0.13-0.63,0.24-1.17,0.34-1.65c2.41-0.19,2.86,1.14,2.39,3.26c1.26-1.34,1.07-2.4-0.28-3.6
			c0.07-1.46,0.14-2.78,0.22-4.45c0.7,0.33,1.57,0.51,1.62,0.82c0.09,0.56-0.31,1.2-0.26,2.25c0.87-0.76,1.75-1.52,2.54-2.21
			c0.12-0.72,0.24-1.51,0.37-2.3c0.69,0.18,1.37,0.35,2.06,0.53c0.02,0.19,0.03,0.37,0.05,0.56c1.32-0.8,2.62-1.62,3.96-2.39
			c0.28-0.16,0.91-0.26,0.98-0.15c0.29,0.48,0.43,1.04,0.66,1.68c2.25-0.09,1.47,1.78,1.75,3.19c-0.52,0.1-0.99,0.2-1.42,0.28
			c-0.06,0.59-0.11,1.14-0.15,1.52c0.6,0.5,1.15,0.96,2.05,1.72c-1.19,0.39-1.88,0.62-2.7,0.89c0.42,1.14,0.85,2.29,1.35,3.64
			c0.25-1.18,0.46-2.17,0.67-3.16c0.1,0.01,0.2,0.02,0.31,0.03c0,0.61,0,1.21,0,1.98c0.62-0.59,1.14-0.99,1.54-1.49
			c0.51-0.62,1.01-1.93,1.37-1.88c1.06,0.15,2.05,0.82,3.07,1.29c0.11,0.05,0.23,0.09,0.34,0.14c0.57-0.96,1.15-1.93,1.82-3.06
			c0.36,0.41,0.69,0.65,0.65,0.75c-0.7,1.81-1.48,3.6-2.17,5.42c-0.25,0.66-0.3,1.39-0.06,2.25c1.21-1.5,2.43-3,3.88-4.8
			c-0.31,1.82-0.32,3.53,2.46,4.02c-1.54,1.03-2.62,1.75-3.7,2.47c0.07,0.13,0.14,0.27,0.21,0.4c0.77-0.33,1.59-0.57,2.28-1.02
			c0.73-0.48,1.34-1.16,2.17-1.63c-1.27,1.91-2.29,3.82-2.42,6.52c-0.28,0.19-0.99,0.68-1.78,1.22c0.33,0.21,0.56,0.35,0.55,0.34
			c-1.4,0.63-2.9,1.36-4.44,1.97c-1.57,0.62-3.2,1.12-5.09,1.77c0.45,0.24,0.66,0.35,1,0.53c-0.41,0.21-0.76,0.39-1.15,0.6
			c0.95,0.41,1.83,0.79,2.91,1.25c-0.47,0.33-0.6,0.48-0.65,0.45c-3.35-1.45-4.38-1.25-6.75,1.43c-1.93,2.18-3.83,4.37-5.77,6.59
			c0.19,0.05,0.52,0.15,0.98,0.28c-0.13,0.56-0.27,1.13-0.41,1.72c1.91-0.62,3.69-1.24,5.49-1.75c0.43-0.12,1.12-0.05,1.41,0.22
			c0.98,0.91,1.83,1.95,2.68,2.89c-1.04,0.47-1.83,0.83-2.63,1.19c0.6,1.24,1.2,2.48,1.87,3.87c-1.56,0-2.75,0.86-2.42,2.99
			c0.11,0.02,0.32,0.1,0.34,0.06c1.2-2.03,2.25-1.48,3.35,0.12c0.22,0.32,0.93,0.6,1.24,0.48c0.37-0.15,0.76-0.75,0.77-1.17
			c0.1-2.63,0.1-5.26,0.12-7.88c0-0.29-0.04-0.59-0.07-0.88c0.22-0.01,0.44-0.03,0.66-0.04c0.1,2.19,0.19,4.38,0.29,6.56
			c0.13,0.06,0.26,0.11,0.39,0.17c0.89-1.22,1.79-2.43,2.68-3.65c0.1,0.05,0.2,0.1,0.3,0.15c-0.51,1.27-1.02,2.53-1.61,4
			c0.69-0.09,1.09-0.14,1.63-0.21c-0.15,0.27-0.19,0.45-0.31,0.55c-1.28,1.05-1.34,2.35-0.51,3.61c0.3,0.46,1.16,0.85,1.72,0.8
			c2.49-0.22,4.26,1.71,3.85,4.39c-0.52,0.09-1.05,0.19-2.02,0.36c2.31,1.02,3.12,2.46,2.4,4.81c-1.29-1.2-2.13-1.16-2.64,0.63
			c-0.35,1.21-1.51,0.56-1.75,0.04c-1.02-2.22-2.78-0.88-4.26-1.27c-0.73,2.41,1.37,3.41,1.96,4.74c-1.7,0.79-3.48,1.42-5.05,2.39
			c-1.56,0.96-2.92,2.27-4.36,3.42c0.03,0.22,0.06,0.44,0.09,0.67c2.69,0.87,5.37,1.74,8.06,2.61c-0.03,0.13-0.06,0.27-0.1,0.4
			c-2-0.57-3.98-1.28-6.02-1.68c-1.94-0.39-3.95-0.71-5.91-0.63c-4.5,0.19-8.99,1.03-13.44-0.47c-4.05-1.36-7.65,0.27-11.91,2.01
			c1.82,1.27,3.29,2.3,5.01,3.49c1.47-3.06,4.29-2.67,7.09-3.3c-0.45,0.63-0.72,1.02-1.1,1.55c0.71,0.64,1.5,1.35,2.28,2.05
			c-1.03,1.12-0.38,1.62,1.11,1.92c0.28-1.76,1.02-2.78,3.03-2.34c0.45,0.1,1.13-0.91,1.57-1.29c0.17,0.32,0.34,1.11,0.69,1.21
			c0.67,0.19,1.45-0.02,2.18-0.07c-0.08-0.38-0.16-0.76-0.29-1.41c1.54,0.19,3.06,0.38,4.73,0.59c-0.33,1.69-2.15,0.52-3.22,1.71
			c2.25,0,4.2,0,5.97,0c-0.54,1.05-0.63,1.09-2.16,0.92c-1.82-0.2-3.64-0.42-5.46-0.54c-0.41-0.03-0.85,0.32-1.28,0.49
			c0.21,0.35,0.41,0.69,0.59,1c-0.44,0.3-1.37,0.6-1.52,1.13c-0.14,0.51,0.51,1.25,0.79,1.83c-1.36-0.65-2.73-1.32-4.11-1.97
			c-0.22-0.1-0.55-0.26-0.7-0.17c-3.09,1.91-5.11-0.65-7.48-1.75c-0.45-0.21-0.96-0.65-1.36-0.57c-2.72,0.56-4.35-1.37-5.97-2.82
			c-1.28-1.15-2.33-1.4-4-1.27c-3.13,0.25-6.3,0.08-9.44-0.07c-2.72-0.13-5.29,0.15-7.99,0.85c-4.26,1.11-7.97,3.14-11.63,5.38
			c-4.01,2.46-7.58,5.48-10.26,9.35c-1.06,1.54-1.81,3.46-2.13,5.3c-0.49,2.77-0.45,5.63-0.69,8.45c-0.09,1-0.42,1.98-0.49,2.98
			c-0.33,4.84-0.7,9.69-0.89,14.54c-0.19,4.92-0.25,9.84-0.26,14.77c-0.01,1.89-0.49,2.94-2.65,2.92c-1.29-0.01-2.59,0.49-3.87,0.83
			c-1.25,0.33-1.99,0.06-1.95-1.38c0.31-9.7,0.6-19.41,0.94-29.11c0.08-2.39,0.34-4.78,0.47-7.17c0.03-0.48-0.02-1.08-0.28-1.45
			c-0.78-1.15-0.62-1.95,0.4-2.94c1.43-1.39,1.28-5.52-0.07-7.92c-1.6-2.85-3.44-5.6-4.71-8.6c-1.49-3.49-2.58-7.17-3.65-10.83
			c-0.52-1.78-1.23-3.13-3.11-3.66c-1.39-0.39-2.73-1.06-4.14-1.31c-3.85-0.67-7.21-2.48-10.24-4.72
			c-3.67-2.71-7.81-3.84-12.11-4.51c-3.58-0.56-6.14-1.92-7.73-5.4c-2.1-4.59-5.58-8.16-10.92-8.01c-5.03,0.14-9.62-1.86-14.54-2.04
			c-1.24-0.04-2.43-0.97-3.69-1.28c-1.14-0.28-2.34-0.28-3.42-0.4c-2.35-1.46-4.78-2.96-7.21-4.47c0.07-0.18,0.14-0.36,0.22-0.54
			c1.68,1.51,3.57,1.98,5.65,1.45c0.33,0.55,0.54,1.38,1.02,1.59c1.55,0.68,3.32,0.92,4.78,1.73c2.61,1.45,5.37,1.28,8.24,1.59
			c-0.46-1.85-1.75-2.16-3.06-2.49c-1.57-0.4-3.41-0.5-4.63-1.41c-2.08-1.54-3.93-2.64-6.38-0.99c-0.8-2.87-3.29-2.5-5.63-2.41
			c1.55-2.87,1.39-3.35-1.3-4.35c-1.6-0.6-3.24-1.12-4.85-1.71c-0.28-0.1-0.69-0.33-0.73-0.55c-0.19-1.17-1.11-1.05-1.69-0.77
			c-2.04,0.98-3.42,0.14-4.53-1.45c-0.67,0.21-1.22,0.39-1.67,0.54c-0.13-1.29-0.25-2.45-0.4-3.89c0.92-0.81,1.78-2.28,3.82-1.98
			c0.39,0.06,0.97-1.12,1.49-1.77c0.6,0.5,1.3,1.41,2.2,1.75c0.88,0.33,1.99,0.07,3.4,0.07c-0.63-0.83-1.12-1.69-1.82-2.35
			c-1.16-1.09-1.27-3.27-0.02-4.19c0.26-0.19,0.88,0,1.28,0.14c0.36,0.12,0.65,0.42,0.97,0.65c0-0.47,0-0.94,0-1.75
			c0.61,0.27,1.06,0.63,1.51,0.62c0.34,0,0.67-0.46,1.48-1.07c-2.62,0.02-3.4-1.47-3.28-3.02c0.08-1.04,1.06-2.34,2-2.85
			c0.61-0.33,1.88,0.54,2.86,0.88c-0.04,0.23-0.08,0.47-0.11,0.7c-0.73,0.21-1.46,0.42-2.23,0.64c0.88,1.16,1.67,2.2,2.47,3.25
			c1.68-1.44,4.54-1.94,4.06-5.42c0.62,0.29,1.13,0.53,1.78,0.84c0.52-0.35,1.13-2.01,1.92-0.13c0.89-0.47,1.78-0.95,2.67-1.42
			c-0.1-0.26-0.2-0.52-0.3-0.78c-1.4,0.21-2.81,0.42-4.2,0.63c-0.18-1.01-0.47-1.9-0.45-2.78c0.01-0.44,0.57-1.2,0.91-1.22
			c0.54-0.03,1.1,0.45,2.05,0.91c0.98-0.54,2.27-1.31,3.63-1.93c0.29-0.13,1,0.14,1.21,0.43c0.29,0.43,0.3,1.06,0.39,1.47
			c1.07,0.5,2.07,0.96,3.36,1.56c-1.29,1.47-3.23,2.66-2.01,4.88c0.22,0.4,0.8,0.61,1.45,1.07c-0.09-1.25-0.16-2.14-0.24-3.31
			c0.75,0.05,1.67-0.14,2.26,0.21c2,1.19,2.18-0.14,2.52-1.69c-0.61,0-1.11,0-1.84,0c0.24-0.9,0.46-1.75,0.69-2.61
			c0.36,0.29,0.68,0.65,1.09,0.85c0.74,0.37,1.51,0.69,2.3,0.96c0.56,0.2,1.15,0.3,1.67,0.44c-0.65,1.11-1.2,2.05-1.74,2.99
			c0.15,0.13,0.3,0.25,0.45,0.38c1.05-1.04,2.11-2.07,3.29-3.23c-1.7-0.99-3.07-1.79-4.99-2.91c1.35-0.6,2.34-1.2,3.42-1.49
			c1.43-0.38,1.53-1.05,0.58-1.93c-0.9-0.84-0.92-1.39,0.16-2.02c0.19-0.11,0.21-0.53,0.3-0.82c0.15-0.46,0.28-0.93,0.52-1.7
			c0.04,0.03-0.28-0.25-0.58-0.52c-0.15,0.07-0.26,0.11-0.36,0.17c-0.56,0.33-1.12,0.66-1.68,1c-0.3-1.03-0.86-2.06-0.81-3.07
			c0.04-0.85,0.79-1.66,1.28-2.58c1,0.21,2.05,0.36,3.05,0.67c1.24,0.38,1.75-0.31,2.4-1.17c0.45-0.6,1.25-1.15,1.97-1.26
			c0.46-0.07,1.04,0.71,1.57,1.12c0.47,0.36,0.94,0.72,1.41,1.08c0.25-0.48,0.49-0.97,0.79-1.55c2.61-0.2,5.2,0.13,6.94,3
			c-1.56-1.9-3.11-3.66-1.28-6.21c1,0.45,1.99,0.91,2.99,1.36c0.04,0.18,0.09,0.37,0.13,0.55c-0.67,0.32-1.34,0.64-2.11,1.01
			c0.02,0.03,0.14,0.53,0.36,0.57c3.42,0.63,3.56,0.77,3.51,4.18c1.3-2.2,1.75-4.43,1.66-6.8c0-0.12,0.12-0.26,0.09-0.36
			c-0.16-0.69-0.35-1.37-0.52-2.05c0.67,0.37,1.34,0.75,2.01,1.12c0.22,0.12,0.43,0.26,0.65,0.39c-0.84,2.61-0.57,2.88,3.25,2.36
			c-1.09-0.78-2.18-1.56-3.27-2.34c-0.15-0.55-0.22-1.14-0.45-1.66c-0.38-0.85-0.58-1.81,0.58-1.91c2.17-0.18,3.21-1.34,3.6-3.33
			c0.05-0.23,0.24-0.44,0.49-0.88c0.39,0.67,0.58,1.01,0.81,1.41c1.3-1.06,1.77-0.47,1.65,1.08c0.44-0.05,0.81-0.09,1.17-0.14
			c0.18,0.93,0.45,1.83,0.5,2.74c0.06,1.12-0.38,1.78-1.73,1.51c-0.25-0.05-0.67,0.71-1.29,1.41c0.96,0,1.47-0.14,1.8,0.04
			c0.4,0.21,0.72,0.66,0.95,1.08c0.08,0.15-0.22,0.51-0.34,0.77c-0.35-0.17-0.7-0.38-1.07-0.5c-0.35-0.12-0.74-0.15-1.11-0.22
			c-0.08,0.23-0.16,0.46-0.24,0.69c0.86,0.33,1.71,0.9,2.56,0.88c0.41-0.01,0.8-1.11,1.2-1.72c0.33-0.51,0.65-1.02,0.95-1.5
			c0.67,1.04,1.18,1.82,1.68,2.6c0.15-0.04,0.3-0.09,0.45-0.13c-0.2,1.53-0.41,3.05-0.62,4.62c2.81-1.42,5.1-4.7,8.84-1.86
			c0.09-0.15,0.18-0.31,0.27-0.46c-0.38-0.54-0.81-1.05-1.14-1.62c-0.29-0.51-0.45-1.08-0.67-1.63c0.55-0.21,1.14-0.67,1.63-0.59
			c1.94,0.32,2.99-0.43,3.59-2.26c0.21-0.65,1.03-1.07,1.49-1.66c0.45-0.58,1.15-1.26,1.14-1.88c-0.04-2.38,1.55-2.18,3.08-2.22
			c0.77-0.02,1.55-0.09,2.51-0.14c0.05,0.2,0.15,0.64,0.25,1.1c0.75-0.43,1.45-0.82,2.63-1.48c0.79,1.42,1.63,2.72,2.28,4.11
			c0.95,2.06,2.6,2.77,4.16,1.58c1.16,0.48,2.36,0.97,3.57,1.47c0.56-0.93,2.72-0.57,3.49,0.67c0.55,0.88,1.01,1.91,1.8,2.51
			c0.47,0.36,1.5,0.12,2.24-0.02c0.59-0.11,1.11-0.56,1.7-0.71c0.96-0.24,1.61-0.04,1.48,1.22c-0.06,0.62,0.21,1.28,0.31,1.83
			c-0.83,0.88-1.67,1.74-2.44,2.65c-0.07,0.08,0.27,0.52,0.15,0.3c1.25-0.47,2.1-0.75,2.93-1.11c0.61-0.27,1.3-0.51,1.74-0.97
			c1.15-1.22,2.09-2.65,3.3-3.79c0.48-0.45,1.47-0.36,2.35-0.55c-0.34,3.45-0.34,3.45-2.81,3.31c-0.23,0.46-0.47,0.94-0.73,1.47
			c1.48,0,2.88,0.21,4.19-0.05c1.57-0.31,1.66-1.7,1.4-3.01c-0.32-1.6-0.74-3.19-1.13-4.87c-2.01,0.02-3.78-0.42-4.97-2.48
			c1.08-0.9,2.14-1.79,3.22-2.69c-0.71-2.05-0.24-2.63,1.89-2.24c2.74,0.5,3.49,1.23,4.74,4.66c3.35-0.18,6.07,1.59,4.97,4.84
			c-1.08-0.54-2.1-1.06-3.14-1.59c-0.66,0.32-1.77,0.55-2.39,1.23c-0.6,0.66-0.7,1.78-1.1,2.94c0.71-0.18,0.98-0.25,1.49-0.39
			c-0.39,0.5-0.64,0.82-0.89,1.15c0.06,0.12,0.12,0.24,0.18,0.36c0.91-0.46,1.83-0.91,2.91-1.45c0.39,0.88,0.72,1.95,1.35,2.8
			c0.22,0.29,1.43,0.29,1.75-0.02c0.58-0.57,0.84-1.48,1.58-2.13c-0.58,1.82-1.15,3.63-1.79,5.64c2.45-0.11,1.27-2.38,2.18-3.08
			c0.4,0.29,0.85,0.61,1.39,1.01c-0.35,0.61-1.34,1.7,0.65,1.66c-1.13,1.28-2.28,2.59-3.43,3.9c0.18,0.08,0.36,0.16,0.55,0.23
			c-0.49,1.49-0.97,2.98-1.47,4.52c-1.83,0.54-1.93,0.87-0.54,2.7c2.31-2.3,2.81-5.19,3.08-8.15c3.47-0.63,4.87,0.34,4.37,2.95
			c2.88,1.27,5.05-1.06,5.25-5.64c0.38,0.17,0.7-0.6,1.8-4.36c1.06,2.23,0.98,3.5,0.17,4.93c-0.87,1.54-1.49,3.22-2.35,5.13
			c2.27-0.37,4.55,1.17,5.7-1.73c-0.64,2.83-2.68,2.47-4.63,2.04c0.65,1.15,1.16,2.04,1.79,3.17c2.68-1.68,6.11-2.54,6.84-6.58
			c0.05,0.92,0.09,1.84,0.15,3c-3.29,1.51-5.61,4.25-6.88,7.91c-3,1.74-3.45,2.69-2.85,5.09c0.61-0.44,1.41-1.18,2.35-1.64
			c1.73-0.85,1.81-2,0.89-3.47c0.75-0.41,1.51-0.81,2.24-1.21c-0.43,1.17-0.85,2.32-1.26,3.47c0.19,0.15,0.38,0.3,0.56,0.45
			c1.13-0.33,2.26-0.65,3.39-0.98c0.07,0.21,0.13,0.41,0.2,0.62c-1.18,0.35-2.35,0.78-3.55,1.04c-1.6,0.35-2.92,0.94-3.77,2.51
			c-0.31,0.56-1.29,0.81-2,1.09c-0.69,0.27-1.44,0.4-1.93,0.54c-0.28,1.36-0.51,2.54-0.79,3.89c1.09,0.66,1.52,1.65,0.09,3.07
			c0.88,0.07,1.46,0.11,1.71,0.13c0.4-1.06,0.72-1.92,1.03-2.77c0.23,0.04,0.47,0.07,0.7,0.11c0.12,0.68,0.25,1.37,0.42,2.32
			c0.78-0.73,1.44-1.38,2.13-1.98c0.57-0.49,1.14-1.23,1.79-1.34c2.98-0.47,4.67-2.45,6.13-5.03c0.13,0.3,0.19,0.42,0.24,0.55
			c0.04,0.1,0.09,0.21,0.15,0.36c1.12-0.22,1.51-2.63,3.32-1.01c-0.43,0.24-0.82,0.45-1.29,0.71c0.28,0.15,0.51,0.28,0.86,0.47
			c-0.32,0.12-0.54,0.2-0.76,0.28c-0.77,0.28-1.9,0.18-1.58,1.59c0.03,0.15-0.33,0.48-0.57,0.6c-2.26,1.1-4.53,2.18-6.8,3.26
			c-0.4,0.19-0.96,0.24-1.19,0.54c-1.58,2.12-3.83,2.22-6.2,2.36c-1.61,0.1-3.5,0.41-3.13,2.91c0.02,0.15-0.31,0.36-0.49,0.54
			c3.31,1.41,6.96-0.05,7.07-3.02c1.31,0,2.9,0.46,3.92-0.1c2.01-1.1,2.9,1.2,4.46,1.07c0.23-1.84,2.9-3.45,5.51-3.4
			c0.08,0.39,0.3,0.81,0.22,1.15c-0.18,0.73-0.52,1.43-0.87,2.34c-0.12,0.03-0.61,0.14-1.09,0.25c0.01,0.19,0.03,0.37,0.04,0.56
			c0.51,0,1.11,0.18,1.5-0.03c1.51-0.82,2.01-2.25,2.15-3.95C319.42,200.22,318.8,200.12,318.19,200.03z M268.15,212.18
			c-2.16,0.61-3,2.24-2.63,5.55c1.31-1.65,2.46-3.09,3.65-4.58c-0.43-0.41-0.74-0.69-1.04-0.98c1.07-0.61,2.13-1.23,3.31-1.9
			c-1.08-0.58-3.42,0.48-3.56,1.44C267.85,211.85,268.05,212.02,268.15,212.18z M284.39,220.06c-0.25,0.12-0.7,0.38-0.72,0.35
			c-0.86-1.26-1.71-0.53-2.58-0.04c-0.87,0.49-1.78,0.91-2.63,1.43c-0.6,0.37-1.13,0.84-1.69,1.27c0.09,0.18,0.18,0.36,0.27,0.54
			c0.56-0.22,1.11-0.48,1.69-0.64c0.54-0.14,1.15-0.35,1.65-0.22c1.71,0.44,3.39,1.02,5.38,1.64c-0.28-1.41-0.46-2.32-0.64-3.23
			c0.33,0.59,0.61,1.22,0.99,1.77c0.3,0.44,0.8,1.17,1.08,1.11c1.58-0.3,3.29-0.51,4.61-1.33c1.3-0.8,1.82-2.4,1.52-4.19
			c0.3,0.52,0.6,1.04,0.97,1.66c1.34-2.23,1.12-3.44-0.61-4.71c-0.81,1.23-1.35,2.9-2.49,3.57c-1.25,0.74-3.03,0.57-4.59,0.78
			C285.89,219.94,285.14,219.99,284.39,220.06z M270.4,234.94c-3.67,0.92-5.37,4.09-7.33,6.78c-2.16,2.97-0.87,6.4-0.36,9.6
			c1.55-1.67,3.08-3.45,4.76-5.08c1.75-1.7,3.66-3.22,5.45-4.88c0.59-0.55,1.58-1.57,1.43-1.84c-0.56-1-1.37-2.14-2.36-2.53
			c-1.15-0.45-1.69-0.91-1.61-2.09c0.95,0,1.9,0,2.98,0c0.07,0.25,0.12,0.7,0.34,1.06c0.24,0.41,0.64,0.73,0.97,1.08
			c0.24-0.47,0.66-0.94,0.67-1.42c0.01-0.83-0.24-1.66-0.47-2.94C273.25,233.51,271.83,234.23,270.4,234.94z M260.58,267.34
			c0.21,0.09,0.41,0.17,0.62,0.26c0.7-1.09,1.4-2.19,2.1-3.28c0.34-0.52,0.69-1.47,1.04-1.47c2.27,0,3.56-1.74,5.23-2.76
			c3.28-2,6.43-4.19,9.68-6.24c2.54-1.6,5.06-3.29,7.75-4.58c2.34-1.12,4.91-1.74,7.44-2.6c-1.43-1.8-2.65-3.46-4.02-4.99
			c-0.49-0.55-1.41-1.2-2.01-1.1c-2.57,0.45-5.32,0.69-6.9,3.31c-0.15,0.25-0.68,0.27-1.04,0.37c-1.66,0.47-3.41,0.74-4.96,1.45
			c-2.32,1.06-4.69,2.19-6.7,3.72c-2.02,1.53-3.85,3.44-5.34,5.49c-0.66,0.92-2.58,2.4-0.4,3.97c0.23,0.17,0.18,1.28-0.08,1.47
			C260.48,262.19,261.36,265.02,260.58,267.34z M241.78,224.63c-2.17,0.8-2.33,1.16-1.57,3.26c0.18,0.5,0.12,1.08,0.23,1.61
			c0.31,1.56,0.48,3.17,1.01,4.65c1.35,3.79,2.82,7.54,4.34,11.27c0.34,0.84,0.91,1.81,1.65,2.23c2.66,1.51,5.09,3.08,6.14,6.22
			c0.33,0.99,1.36,1.74,2.07,2.6c0.25-0.09,0.5-0.19,0.74-0.28c0.18-3.63,0.75-7.29,0.42-10.87c-0.34-3.73-1.35-7.47-3.76-10.57
			c-0.66-0.85-1.35-1.91-2.27-2.29C246.93,230.87,244.48,227.79,241.78,224.63z M241.96,244.8c-0.62-2.06-1.11-3.72-1.62-5.36
			c-1.39-4.5-3.82-7.93-8.89-8.7c-0.66-0.1-1.27-0.54-1.91-0.8c-1.8-0.71-3.55-1.65-5.42-2.04c-3.86-0.81-7.79-1.35-11.7-1.9
			c-0.33-0.05-1.12,0.91-1.09,0.95c1.03,1.41,0.92,3.39,3.07,4.32c3.68,1.58,7.64,3.17,10.5,5.82
			C229.67,241.49,235.4,243.07,241.96,244.8z M296.6,248.78c2.76,1.38,5.33,2.67,7.91,3.93c0.25,0.12,0.64,0.1,0.91,0
			c2.29-0.86,4.59-1.71,6.84-2.66c1.56-0.65,3.02-1.58,4.61-2.15c2.06-0.74,4.25-1.13,6.3-1.88c1.49-0.54,2.86-1.41,4.43-2.2
			c-0.19-0.25-0.45-0.99-0.86-1.08c-1.36-0.32-1.79-1.18-1.04-2.13c0.33-0.42,1.63-0.23,2.45-0.08c0.6,0.11,1.13,0.62,1.38,0.76
			c0-2.71,0-5.29,0-7.88c-0.8,0.53-2.2,0.96-2.68,1.87c-0.8,1.52-2.06,2.01-3.44,2.33c-1.53,0.36-3.13,0.69-4.67,0.6
			c-3.46-0.21-5.73,1.5-7.56,4.12c-1.11,1.58-2.47,2.67-4.54,2.63c-0.48-0.01-0.99,0.18-1.44,0.38
			C302.42,246.59,299.86,248.36,296.6,248.78z M314.17,250.55c3.72,1.58,11.77,1.96,16.79,1.71c3.47-0.17,5.18-2.21,7.33-4.3
			c-0.58-0.28-0.95-0.46-1.55-0.74c2.19-0.31,3.48-1.53,3.51-2.8c-1.51,0-3.04-0.16-4.52,0.04c-2.21,0.3-4.6,0.45-6.52,1.42
			c-1.74,0.88-3.41,1.49-5.29,1.73C320.53,248.04,317.25,248.81,314.17,250.55z M206.8,217.77c0.06,1.6,1.29,1.93,2.3,2.45
			c1.18,0.6,1.86,2.45,3.68,1.48c0.02,0.06,0.03,0.12,0.06,0.17c1.59,2.33,4.09,2.85,6.62,3.19c0.96,0.13,2.31,0.18,2.33-1.23
			c0.02-1.14-0.17-2.78-0.9-3.29c-0.9-0.64-0.79-1-0.6-1.76c0.27-1.07-0.8-2.7-1.7-2.5c-1.51,0.34-2.97,0.87-4.94,1.47
			c0.57-1.25,1.04-2.3,1.47-3.24c-1.06-0.97-2.2-2.12-3.47-3.09c-0.65-0.5-1.54-0.67-2.33-0.98c-0.31,0.83-0.65,1.66-0.93,2.51
			c-0.06,0.18,0.1,0.44,0.17,0.69c-0.69,0.28-1.26,0.51-2.19,0.89c1,1.07,1.89,2.02,3.05,3.26
			C208.26,217.77,207.65,217.77,206.8,217.77z M187.4,204.82c-0.07,0.46-0.12,0.64-0.13,0.82c-0.03,1.35,0.67,2.25,1.44,3.35
			c1.18,1.69,1.57,3.91,2.39,5.87c0.22,0.53,0.7,1.1,1.21,1.35c1.53,0.77,3.14,1.39,4.72,2.07c-0.26-0.55-0.61-1.07-1.09-1.24
			c-1.45-0.51-1.39-1.53-0.89-2.58c0.47-0.98,2.42-1.36,3.26-0.73c0.78,0.58,1.27,1.14,0.33,2.12c-0.81,0.85-0.42,3.9,0.44,4.73
			c2.11,2.04,4.75,2.29,8.14,2.4c-2.76-4.38-5.27-8.34-7.74-12.26c0.26,0.06,0.53,0.13,1.03,0.26c-1.31-1.14-2.37-2.13-3.53-3
			c-0.29-0.22-0.95-0.18-1.33-0.01c-0.62,0.28-1.32,0.66-1.66,1.2c-0.79,1.23-1.89,0.77-2.6,0.34c-0.4-0.24-0.56-1.64-0.25-2.18
			c1.25-2.18-0.53-2.71-1.72-3.92c-0.36,0.87-0.6,1.46-0.87,2.11C188.16,205.3,187.87,205.12,187.4,204.82z M282.2,216.98
			c-1.65,0-3.08,0-4.51,0c-2.22,0.01-4.05,0.35-5.85,2.2c-2.7,2.78-5.33,5.62-6.99,9.04c-1.36,2.81-1.82,6.07-2.66,9.13
			c-0.01,0.03,0.18,0.12,0.56,0.38c0.71-1.16,1.41-2.32,2.12-3.48c1.41-2.3,2.59-4.8,4.32-6.84c1.49-1.76,2.75-4.25,5.77-4.01
			c0.22,0.02,0.46-0.39,0.71-0.57c1.07-0.75,2.11-1.55,3.24-2.21C280.38,219.77,281.93,219.05,282.2,216.98z M302.52,253.2
			c0.03-0.13,0.05-0.25,0.08-0.38c-2.49-1-4.94-2.1-7.47-2.95c-1.02-0.34-2.34-0.43-3.32-0.08c-2.84,1-5.58,2.27-8.35,3.47
			c-0.32,0.14-0.55,0.48-1.15,1.02c0.97-0.21,1.49-0.23,1.93-0.44c3.67-1.8,7.46-1,11.27-0.68
			C297.82,253.36,300.17,253.2,302.52,253.2z M174.05,205.88c-1.79-1.56-3.26-2.82-4.71-4.1c-1.44-1.27-2.38-1.23-3.65,0.23
			c-0.47,0.55-0.91,1.13-1.2,1.49c0.3,1.02,0.61,2.09,0.92,3.15c-0.16,0.06-0.33,0.12-0.49,0.18c0.82,0.76,1.64,1.51,2.18,2.01
			c1.26-1.17,2.09-2.35,3.22-2.86C171.29,205.53,172.61,205.88,174.05,205.88z M299.4,245.24c0.05-0.03,0.1-0.07,0.15-0.1
			c1.9-0.92,3.8-1.85,5.86-2.85c-0.97-1.72-1.69-3-2.57-4.57c-0.41,1.58-0.69,2.67-0.99,3.85c-1.76-0.65-3.35-2.05-4.78-0.23
			c-0.35,0.45,0.07,1.51,0.17,2.63c-0.16,0.46-0.48,1.33-0.79,2.2c0.15,0.13,0.3,0.27,0.45,0.4
			C297.72,246.14,298.56,245.69,299.4,245.24z M226.19,214.36c-0.05,0.16-0.1,0.32-0.14,0.48c2.75,3.4,5.5,6.79,8.27,10.21
			c1.23-2.29,1.19-5.38-0.45-6.47C231.44,216.97,228.76,215.75,226.19,214.36z M186.47,204.38c0.67-1.41,1.03-2.32,1.52-3.15
			c0.21-0.35,0.67-0.57,1.06-0.77c0.5-0.26,1.03-0.43,1.55-0.64c-0.33-0.74-0.48-1.68-1.04-2.15c-0.71-0.61-1.74-0.84-2.64-1.23
			c0.03,0.11,0.06,0.23,0.09,0.34c-1.37,0.31-2.74,0.61-4.21,0.94C183.96,199.83,185.1,201.9,186.47,204.38z M334.07,203.51
			c1.64,0.73,2.82,1.26,4.41,1.97c0-1.61,0-2.91,0-4.35c0.44,0.52,0.79,0.94,1.17,1.41c1.06-1.63,1.39-4.29,0.5-4.62
			c-0.85-0.32-1.95,0.04-2.95,0.1c0.02,0.18,0.04,0.35,0.06,0.53c0.21,0.11,0.42,0.23,0.16,0.08
			C336.32,200.24,335.28,201.75,334.07,203.51z M230.25,225.73c-2.58-3.03-4.8-5.63-7.02-8.24c-0.19,0.13-0.38,0.27-0.57,0.4
			c0.42,0.68,0.84,1.37,1.38,2.24c-0.36,0.77-0.92,1.79-1.31,2.89c-0.4,1.12-0.18,1.97,1.27,2.08
			C225.93,225.26,227.85,225.49,230.25,225.73z M284.4,216.62c2.59,1.34,5.05,0.13,7.27-0.87c0.87-0.39,1.06-2.3,1.56-3.52
			c-1.8,0.41-3.17,0.75-4.56,1.04C286.75,213.67,284.78,213.99,284.4,216.62z M341.26,205.51c4.16-0.24,8.33-3.52,9.19-7.12
			C346.33,199.42,341.63,203,341.26,205.51z M233.6,216.06c0.15-0.14,0.31-0.28,0.46-0.41c-0.37-0.58-0.62-1.44-1.14-1.68
			c-1.01-0.46-2.19-0.51-3.28-0.83c-0.69-0.2-1.33-0.57-1.99-0.87c0.07-0.16,0.15-0.32,0.22-0.48c0.64-0.09,1.29-0.18,2.26-0.31
			c-1.84-1.56-0.13-1.6,0.66-2c-2.41-1.82-2.41-1.82-5.41-1.64c0.04,2.12,1.95,1.18,2.85,1.73c-0.71,0.91-1.42,1.81-2.27,2.89
			C228.58,213.69,231.09,214.87,233.6,216.06z M248.28,251.65c-0.12,0.08-0.24,0.17-0.35,0.25c1.05,2.55,2.11,5.09,3.14,7.64
			c0.66,1.63,1.53,2.99,3.63,2.87c0.72-1.37,0.38-2.46-0.77-3.61c-1.18-1.18-2.1-2.62-3.13-3.94
			C249.96,253.79,249.12,252.72,248.28,251.65z M294.88,243.91c0.78-1.42,0.71-4.9-0.17-5.52c-1.14-0.8-3.51-0.27-5.52,1.47
			C291.11,241.23,292.95,242.54,294.88,243.91z M328.03,213.6c3.3-2.21,5.28-5.03,4.08-9.63c-0.61,0.39-0.9,1.07-1.25,1.71
			c-0.55,0.99-1,2.09-1.76,2.9C327.68,210.09,327.5,211.72,328.03,213.6z M242.98,222.3c1.38-0.83,2.21-2.02,1.22-2.9
			c-1.67-1.5-3.64-2.81-6.2-2.97C237.27,220.72,241.58,220.12,242.98,222.3z M185.6,207.57c0.41-2.65-1.65-3.92-4-5.32
			c-0.78,2.49-2.16,0.97-3.8,0.31c0.78,2.16,2.28,3.05,3.69,3.98c0.59,0.39,1.35,0.56,2.05,0.74
			C184.16,207.43,184.82,207.46,185.6,207.57z M313.44,231.73c-1.45-1.39-7.26-0.86-9.45,0.75
			C309.17,234.68,309.67,234.64,313.44,231.73z M274.3,215.96c1.97,0,3.5,0.16,4.97-0.06c1.01-0.15,2.14-0.64,2.85-1.34
			c0.74-0.74,1.25-1.34,2.45-1.36c1.69-0.03,2.77-1.7,2.44-3.43c-0.22,0.18-0.51,0.29-0.58,0.48c-0.82,2.34-3.82,1.89-4.96,3.85
			c-0.06,0.1-0.63,0.03-0.88-0.11C277.97,212.55,276.39,214.39,274.3,215.96z M249.94,229.85c0.48-4.84-1.64-6.92-6.01-6.21
			C245.16,226.38,247.58,227.81,249.94,229.85z M191.8,217.92c-3.88-0.83-7.13-3.2-11.25-2.39c0.79,1.38,1.57,1.77,3.25,1.83
			c2.19,0.07,4.33,1.33,6.5,2.07c0.16,0.06,0.36,0.02,0.58,0.03C191.14,219.03,191.39,218.61,191.8,217.92z M219.71,236.12
			c0.03-0.09,0.07-0.18,0.1-0.27c-4.1-1.81-8.2-3.61-12.4-5.46c0.87,2.12,2.13,3.7,4.48,4.16
			C214.5,235.06,217.1,235.59,219.71,236.12z M289.67,209.14c0.18,0.15,0.35,0.3,0.53,0.45c0.68-0.85,1.36-1.7,2.04-2.55
			c0.05,0.06,0.1,0.13,0.15,0.19c-0.65,0.99-1.3,1.98-1.99,3.03c0.47,0.43,0.96,0.87,1.59,1.45c0.65-0.58,1.24-1.09,2.09-1.84
			c-0.85-0.09-1.18-0.13-1.13-0.13c0.48-1.1,0.96-2.19,1.48-3.38c0.17,0.31,0.32,0.58,0.5,0.91c0.39-0.47,0.75-0.9,1.11-1.33
			C293.65,204.62,290.16,206.4,289.67,209.14z M252.15,201.64c-0.34,0.06-0.67,0.11-1.01,0.17c0,1.84,0,3.67,0,5.64
			c0.31,0.14,0.83,0.37,1.55,0.7c-0.61,0.52-1.01,0.86-1.52,1.3c0.5,0.61,0.96,1.17,1.83,2.22c0.26-1.35,0.18-2.34,0.62-2.91
			c1.42-1.81,0.45-2.34-1.06-2.54C252.42,204.57,252.28,203.1,252.15,201.64z M312.26,257.77c2.34,1.21,4.62,2.4,7.32,3.8
			c-0.82-1.37-1.5-2.2-1.86-3.15C316.73,255.79,314.37,255.37,312.26,257.77z M276.77,236.68c0.17,0.31,0.35,0.62,0.52,0.93
			c0.72-0.16,1.48-0.23,2.15-0.52c1.1-0.46,2.19-0.98,3.17-1.65c0.63-0.43,1.04-1.17,1.56-1.77c-0.69,0.1-1.37,0.21-2.13,0.32
			c-0.18-0.2-0.44-0.51-0.48-0.55c-0.65,0.35-1.12,0.56-1.53,0.85C278.92,235.07,277.85,235.89,276.77,236.68z M204.17,224.25
			c2.75,1.69,4.04,4.85,7.59,5.54C210.06,226.67,208.74,223.61,204.17,224.25z M164.71,194.69c0.73,0.76,1.25,1.3,1.76,1.83
			c0.28,0.29,0.86,0.78,0.81,0.85c-0.97,1.42,0.52,1.67,1.05,2.61c0.32-0.48,0.71-0.79,0.68-1.06c-0.13-1.37-0.05-2.61,1.32-3.37
			c-0.25-0.38-0.5-1.07-0.76-1.08C168.15,194.44,166.74,194.58,164.71,194.69z M328.52,195.14c-0.19-1.1-0.31-1.81-0.46-2.7
			c0.88,0.24,1.43,0.39,1.61,0.44c0.51-0.92,0.96-1.56,1.22-2.27c0.24-0.68,0.28-1.43,0.41-2.15c-0.5,0.51-1,1.02-1.51,1.52
			c-0.06,0.06-0.21,0.04-0.48,0.08c0.23-0.8,0.43-1.54,0.78-2.76C327.09,190.79,326.62,192.97,328.52,195.14z M324.66,233.4
			c-1.57-0.19-5.52,2-6.35,3.5C322.88,237.34,323.59,236.75,324.66,233.4z M252.32,224.7c-0.53,4.27,1.71,7.13,5.14,9.97
			C255.59,231.03,253.96,227.86,252.32,224.7z M256.85,223.21c0.31-0.04,0.62-0.09,0.94-0.13c-0.2-1.19-0.49-2.37-0.58-3.56
			c-0.1-1.35-0.02-2.71-0.02-4.07c-2.15-0.2-2.6,0.31-1.82,2.04c0.11,0.25,0.39,0.56,0.32,0.74
			C254.93,220.24,256.42,221.57,256.85,223.21z M260.81,221.96c1.46-1.09,1.78-4.35,0.56-5.5c-0.29-0.27-0.81-0.54-1.12-0.45
			c-0.31,0.08-0.66,0.61-0.69,0.97C259.38,218.72,259.3,220.48,260.81,221.96z M304.85,185.53c-0.1-0.14-0.2-0.28-0.3-0.43
			c-0.73,0.34-1.64,0.5-2.15,1.05c-1.4,1.51-2.68,3.15-3.9,4.81c-0.27,0.37-0.13,1.05-0.18,1.58c0.53-0.26,1.3-0.38,1.56-0.8
			c0.89-1.46,1.02-3.34,2.72-4.35C303.42,186.9,304.1,186.16,304.85,185.53z M335.56,194.19c-2.75-0.51-2.68,1.92-3.51,3.29
			c-0.4,0.66-0.26,1.66-0.4,2.77C333.61,199.27,334.76,197.36,335.56,194.19z M337.44,206.32c-0.03-0.3-0.06-0.6-0.09-0.9
			c-1.19-0.16-2.88-0.87-3.46-0.35c-0.78,0.69-0.7,2.34-0.98,3.58c0.24,0.12,0.47,0.24,0.71,0.36
			C334.89,208.12,336.17,207.22,337.44,206.32z M282.66,218.55c4.41,1.06,8.3,0.4,8.72-1.54c-1.53,0.29-3.06,0.4-4.45,0.9
			C285.57,218.39,283.91,216.21,282.66,218.55z M297.43,190.22c0.65-1.16,1.31-2.3,1.89-3.47c0.13-0.27,0.11-0.79-0.07-1
			c-0.16-0.19-0.64-0.11-0.98-0.13c-0.59-0.04-1.19-0.11-1.78-0.09c-0.46,0.01-0.91,0.13-1.39,0.2
			C295.94,187.36,296.64,188.71,297.43,190.22z M180.15,208.06c-1.51-1.09-2.99-2.16-4.47-3.23c-0.17,0.17-0.35,0.35-0.52,0.52
			c0.16,1.11,2.82,1.28,1.38,3.02c-0.45-0.16-0.92-0.32-1.68-0.58C176.39,209.53,178.76,209.56,180.15,208.06z M174.61,195.75
			c-0.79-1.47-1.44-2.83-2.26-4.07c-0.17-0.27-0.95-0.14-1.44-0.2c0.14,1,0.11,2.08,0.49,2.98c0.26,0.62,1.09,1.01,1.66,1.5
			c-0.07,0.18-0.15,0.35-0.22,0.53C173.32,196.27,173.8,196.08,174.61,195.75z M318.55,231.13c-1.39-0.35-3.14-0.93-3.33,0.54
			c-0.17,1.29,0.28,2.8,0,4.24c0,0.02,0.21,0.07,0.51,0.18C316.63,234.5,317.54,232.89,318.55,231.13z M267.54,232.85
			c0.19,0.22,0.39,0.45,0.58,0.67c1.04-0.78,2.38-1.38,3.02-2.41c0.66-1.05,0.65-2.53,0.93-3.83c-0.09-0.07-0.17-0.15-0.26-0.22
			C270.39,229,268.97,230.92,267.54,232.85z M269.35,205.07c0.07,0.19,0.14,0.38,0.21,0.57c0.86-0.19,1.8-0.23,2.56-0.62
			c0.52-0.27,1.16-1.09,1.08-1.55c-0.15-0.92-0.76-1.77-1.15-2.57C271.17,202.27,270.26,203.67,269.35,205.07z M237.1,222.56
			c-0.21,0.05-0.42,0.09-0.63,0.14c-0.97,4.2-0.8,4.91,1.76,5.92C237.83,226.46,237.47,224.51,237.1,222.56z M205.77,212
			c-0.58-0.49-1.1-1.24-1.49-1.18c-0.79,0.12-1.69,0.54-2.17,1.13c-0.24,0.3,0.23,1.31,0.55,1.9c0.31,0.58,0.85,1.05,1.29,1.57
			C204.03,214.14,203.56,212.6,205.77,212z M325.08,230.46c-0.16-0.14-0.33-0.27-0.49-0.41c-1.19,0.46-2.41,0.88-3.55,1.44
			c-0.2,0.1-0.09,0.83-0.12,1.28c1.15-0.18,2.35-0.22,3.42-0.61C324.74,232.02,324.84,231.05,325.08,230.46z M291.41,225.75
			c-2.96-0.5-4.11,0.1-4.05,2.12C289.58,228.32,289.83,228.19,291.41,225.75z M284.25,208.8c-1.61,1.12-3.12,2.17-4.88,3.39
			C284.21,211.99,284.58,211.73,284.25,208.8z M248.22,214.96c0.15-0.02,0.3-0.04,0.45-0.06c-0.17-1.07-0.18-2.21-0.59-3.18
			c-0.15-0.36-1.24-0.36-1.91-0.39c-0.09,0-0.45,1.03-0.28,1.25C246.58,213.45,247.43,214.18,248.22,214.96z M325.43,259.2
			c-0.85-0.07-1.56-0.22-2.24-0.15c-0.48,0.05-0.92,0.4-1.38,0.62c0.2,0.4,0.31,0.91,0.63,1.18
			C323.89,262.1,324.85,261.53,325.43,259.2z M254.6,214.59c0.08,0.2,0.15,0.39,0.23,0.59c0.85-0.44,1.69-0.89,2.54-1.33
			c-0.57-0.55-1.06-1.33-1.75-1.58c-0.49-0.18-1.24,0.32-1.88,0.52c0.06,0.18,0.12,0.36,0.19,0.54c0.68,0.25,1.37,0.5,2.47,0.91
			C255.45,214.42,255.02,214.51,254.6,214.59z M170.26,201.18c1.38,2.34,1.89,2.59,4.06,1.94
			C172.4,200.75,171.66,200.39,170.26,201.18z M250.39,191.1c-0.99-0.94-1.8-1.72-2.61-2.5c-0.37,0.44-1.14,1.11-1.04,1.27
			C247.4,191.02,248.34,191.86,250.39,191.1z M301.78,185.75c1.27-0.95,2.26-1.69,3.43-2.57
			C302.87,181.93,302.01,182.61,301.78,185.75z M287.18,170.86c1.03,0.55,1.83,0.99,2.66,1.44c1.15-1.04,0.56-2.06-0.35-2.63
			C288.04,168.77,287.66,170.2,287.18,170.86z M196,221.62c0.17-0.36,0.35-0.72,0.52-1.08c-0.95-0.56-1.9-1.13-2.85-1.69
			c-0.18,0.49-0.59,1.35-0.51,1.4C194.06,220.77,195.04,221.18,196,221.62z M180.32,200.31c0.85-0.63,1.49-1.11,2.41-1.8
			c-1.05-0.27-1.56-0.3-1.94-0.54c-0.41-0.26-0.69-0.72-1.02-1.09c-0.06,0.62-0.2,1.25-0.15,1.86
			C179.64,199.14,179.94,199.52,180.32,200.31z M344.13,199.31c2.75,0.21,3.2-0.2,3.09-2.82
			C345.97,197.62,345.05,198.47,344.13,199.31z M216.07,211.35c0.1-0.24,0.19-0.49,0.29-0.73c-0.77-0.49-1.5-1.04-2.31-1.44
			c-0.29-0.14-0.76,0.08-1.14,0.13c0.13,0.43,0.14,1.12,0.41,1.24C214.19,210.93,215.15,211.1,216.07,211.35z M308.39,238.68
			c-0.2-0.17-0.39-0.33-0.59-0.5c-0.77,0.79-1.54,1.58-2.27,2.4c-0.02,0.02,0.45,0.68,0.72,0.7
			C308.33,241.48,307.49,239.42,308.39,238.68z M246.12,214.75c-0.39-0.97-0.58-1.63-0.91-2.21c-0.21-0.37-0.59-0.72-0.97-0.9
			c-0.16-0.07-0.75,0.32-0.77,0.52c-0.03,0.49,0,1.2,0.3,1.45C244.37,214.09,245.17,214.31,246.12,214.75z M213.56,205.5
			c1.18,0.95,2.09,1.68,3.13,2.52C216.89,205.77,216.34,204.61,213.56,205.5z M334.94,233.54c1.59,1.49,2.36-0.37,3.45-0.92
			c1.31-0.67,1.28-0.8-0.06-1.64C338.38,233.41,335.82,232.48,334.94,233.54z M287.21,236.13c0.12,0.26,0.24,0.51,0.36,0.77
			c1.07-0.4,2.14-0.8,3.14-1.17c-0.36-0.59-0.57-0.95-0.87-1.44C288.96,234.9,288.08,235.51,287.21,236.13z M243.79,203.92
			c-0.11-0.04-0.22-0.08-0.34-0.12c-0.62,0.75-1.25,1.5-1.93,2.32c0.69,0.5,1.17,0.85,1.94,1.41
			C243.6,206.15,243.7,205.04,243.79,203.92z M344.72,193.42c-2.15,1.39-2.15,1.39-0.67,4.33
			C344.28,196.28,344.47,195.01,344.72,193.42z M282.74,239.52c-0.16-0.3-0.33-0.6-0.49-0.9c-1.12,0.62-2.25,1.23-3.37,1.85
			c0.13,0.25,0.27,0.5,0.4,0.75C280.43,240.65,281.59,240.09,282.74,239.52z M274.07,181.53c-0.76,0.62-1.44,1.07-1.97,1.65
			c-0.24,0.26-0.21,0.8-0.21,1.22c0,0.1,0.39,0.28,0.6,0.28C273.24,184.66,274.31,182.66,274.07,181.53z M221.17,208.79
			c0.23-0.09,0.45-0.18,0.68-0.27c-0.62-1.3-0.08-3.16-2.57-4.11C220.04,206.16,220.61,207.48,221.17,208.79z M326.36,207.21
			c-0.21-0.03-0.42-0.05-0.63-0.08c-0.35,0.89-0.7,1.79-1.18,3.03c1.06-0.26,1.63-0.4,2.32-0.57
			C326.68,208.7,326.52,207.96,326.36,207.21z M327.55,216.88c0.14,0.16,0.28,0.31,0.41,0.47c1.16-0.94,2.31-1.88,3.47-2.82
			c-0.19-0.22-0.38-0.44-0.57-0.65C329.76,214.88,328.65,215.88,327.55,216.88z M300.77,199.85c-0.01-0.18-0.02-0.36-0.03-0.54
			c-0.75-0.27-1.49-0.54-2.57-0.93c0.12,1.06,0.19,1.68,0.3,2.61C299.42,200.52,300.09,200.19,300.77,199.85z M308.52,182.22
			c-1.61,1.08-3.68,1.41-2.24,3.88C306.98,184.88,307.63,183.76,308.52,182.22z M189.11,196.75c0.72,0.3,1.37,0.57,2.01,0.84
			c0.15-0.15,0.31-0.3,0.46-0.44c-0.39-0.7-0.78-1.4-1.36-2.43C189.67,195.71,189.42,196.18,189.11,196.75z M329.45,202.68
			c-0.1-0.17-0.21-0.34-0.31-0.51c-1.43-0.06-2.46,0.32-2.14,2.75C328.01,204,328.73,203.34,329.45,202.68z M217.69,207.43
			c0.47,0.97,0.94,1.94,1.44,2.96C220.23,209.14,219.91,208.33,217.69,207.43z M251.76,195.22c-1.25-2.05-2.23-1.56-3.26-0.29
			C249.44,195.02,250.38,195.1,251.76,195.22z M219.87,192.51c0.2,1.28,0.34,2.2,0.52,3.31c0.6-0.24,1.17-0.46,1.95-0.77
			C221.45,194.14,220.76,193.43,219.87,192.51z M180.49,217.56c-0.41-2.44-1.85-2.37-3.33-2.26
			C178.16,215.98,179.16,216.66,180.49,217.56z M243.65,202.44c-0.15-0.21-0.31-0.42-0.46-0.62c-0.61,0.45-1.27,0.85-1.8,1.38
			c-0.12,0.13,0.21,0.7,0.42,1.35C242.61,203.63,243.13,203.03,243.65,202.44z M199.61,196.02c0.11,0,0.22,0,0.32,0
			c0.22-0.58,0.57-1.16,0.63-1.76c0.06-0.55-0.19-1.13-0.3-1.69c-0.22,0.05-0.44,0.09-0.66,0.14
			C199.61,193.81,199.61,194.91,199.61,196.02z M274.74,187.56c0.15,0.08,0.31,0.16,0.46,0.23c0.26-1.25,0.52-2.49,0.78-3.74
			c-0.25-0.05-0.5-0.09-0.75-0.14C275.06,185.13,274.9,186.34,274.74,187.56z M330.09,201.43c1.05-1.54,1.24-2.48-0.66-3.02
			C329.62,199.28,329.8,200.14,330.09,201.43z M184.59,203.48c-0.59-3.05-0.6-3.06-2.36-2.25
			C182.95,201.9,183.61,202.54,184.59,203.48z M340.39,194.68c0.19,0.2,0.38,0.4,0.57,0.6c0.79-0.82,1.59-1.65,2.38-2.47
			c-0.15-0.15-0.3-0.29-0.46-0.44C342.05,193.14,341.22,193.91,340.39,194.68z M222.75,205.11c-0.15,0.01-0.3,0.01-0.46,0.02
			c0.29,1.44,0.58,2.88,0.87,4.32c0.18-0.04,0.36-0.07,0.54-0.11C223.38,207.94,223.07,206.53,222.75,205.11z M285.3,184.21
			c-0.32-0.08-0.63-0.16-0.95-0.24c-0.22,0.83-0.44,1.65-0.67,2.48c0.22,0.07,0.45,0.13,0.67,0.2
			C284.67,185.84,284.98,185.03,285.3,184.21z"/>
		<path d="M320.81,188.67c-0.95-0.87-2.05-1.63-2.8-2.65c-0.63-0.86-0.2-1.54,1-1.47c0.87,0.05,1.74,0.07,2.6,0.08
			c0.86,0.01,1.72,0,3.16,0c-0.63,0.82-1.06,1.5-1.62,2.06c-0.68,0.68-1.47,1.26-2.22,1.88
			C320.94,188.58,320.81,188.67,320.81,188.67z"/>
		<path d="M161.5,210.3c1.18,0.96,2.54,2.07,3.85,3.14C164.34,214.03,162.26,212.36,161.5,210.3z"/>
		<path d="M194.22,213.09c0.43-0.96,0.86-1.93,1.34-2.87c0.01-0.02,1,0.41,0.99,0.44c-0.37,1-0.79,1.98-1.21,2.96
			C194.96,213.44,194.59,213.27,194.22,213.09z"/>
		<path d="M193.38,213.79c-0.41-0.38-1.03-0.7-1.15-1.15c-0.1-0.39,0.36-0.93,0.58-1.4c0.44,0.61,0.87,1.21,1.31,1.82
			C193.88,213.29,193.63,213.54,193.38,213.79z"/>
	</g>
	<g>
		<g>
			<path d="M225.96,314.31c2.75,0,5.5,0,8.25,0c1.56,0.16,3.12,0.29,4.67,0.48c4.89,0.6,9.56,1.9,13.8,4.48
				c0.47,0.29,0.8,0.29,1.28,0c4.24-2.58,8.92-3.88,13.8-4.48c1.55-0.19,3.12-0.32,4.68-0.48c2.81,0,5.61,0,8.42,0
				c1.06,0.07,2.12,0.16,3.18,0.22c4.59,0.26,9.18,0.52,13.78,0.75c1.32,0.07,1.32,0.02,1.46,1.3c0.04,0.39,0.13,0.78,0.12,1.17
				c-0.01,0.7,0.31,0.89,0.98,0.89c2.58-0.02,5.16,0.04,7.74,0.01c0.74-0.01,1.05,0.2,1.27,0.93c6.99,23.07,14.01,46.14,21.03,69.2
				c0.63,2.08,1.32,4.15,1.98,6.22c0,0.11,0,0.22,0,0.34c-0.36,0.02-0.72,0.07-1.09,0.07c-18.58,0-37.16-0.01-55.75-0.01
				c-4.24,0-8.48-0.01-12.72-0.01c-0.41,0-0.85,0.11-0.88-0.57c-0.09-2.21-0.21-4.43-0.34-6.64c-0.03-0.5,0.16-0.71,0.64-0.77
				c2.25-0.27,4.5-0.69,6.76-0.81c5.3-0.26,10.54,0.37,15.72,1.41c6.62,1.33,13.2,2.85,19.82,4.18c6.15,1.23,12.34,2.1,18.63,1.27
				c1.34-0.18,2.66-0.48,4.07-0.73c-0.17-0.48-0.27-0.77-0.37-1.05c-2.42-6.9-4.88-13.79-7.25-20.7
				c-4.38-12.78-8.41-25.66-11.59-38.8c-0.87-3.59-1.62-7.21-2.45-10.82c-0.05-0.23-0.31-0.58-0.5-0.6
				c-0.74-0.07-1.5-0.03-2.29-0.03c0,0.3-0.03,0.53,0,0.74c0.33,2.07,0.64,4.16,1.03,6.22c1.76,9.32,4.17,18.48,7.33,27.41
				c3.78,10.7,7.8,21.31,11.72,31.96c0.49,1.33,0.99,2.65,1.5,4.02c-0.29,0.09-0.47,0.17-0.66,0.2c-0.58,0.08-1.17,0.16-1.75,0.21
				c-4.66,0.36-9.25-0.26-13.8-1.1c-7.93-1.46-15.84-3.09-23.77-4.53c-5.11-0.93-10.27-1.57-15.48-1.41
				c-5.8,0.18-11.37,1.12-15.47,5.54c-1.46-1.04-2.79-2.18-4.29-3.01c-3.69-2.03-7.77-2.48-11.89-2.54
				c-6.09-0.09-12.08,0.82-18.04,1.92c-8.4,1.55-16.78,3.19-25.19,4.69c-3.21,0.57-6.47,0.72-9.73,0.43
				c-0.68-0.06-1.35-0.21-2.11-0.33c0.16-0.43,0.27-0.71,0.38-1c3.35-8.92,6.77-17.81,10.03-26.76
				c4.56-12.52,8.44-25.24,10.64-38.41c0.23-1.37,0.43-2.75,0.66-4.25c-0.66,0-1.19,0.05-1.7-0.01c-0.81-0.09-1.15,0.19-1.32,1.04
				c-1.89,9.57-4.4,18.99-7.18,28.34c-4.18,14.02-9.06,27.81-13.97,41.59c-0.11,0.31-0.2,0.62-0.31,0.96
				c0.21,0.08,0.33,0.15,0.46,0.16c2.72,0.33,5.44,0.89,8.17,0.94c6.15,0.13,12.15-1.1,18.13-2.38c7.97-1.71,15.87-3.79,24.02-4.55
				c4.66-0.43,9.3-0.39,13.91,0.53c0.77,0.15,0.93,0.47,0.88,1.17c-0.14,1.93-0.24,3.87-0.33,5.8c-0.05,1.07-0.03,1.07-1.14,1.08
				c-22.74,0.01-45.47,0.02-68.21,0.03c-0.36,0-0.72-0.05-1.09-0.07c0-0.11,0-0.22,0-0.34c0.1-0.23,0.22-0.44,0.3-0.68
				c3.1-10.18,6.19-20.36,9.28-30.54c4.49-14.76,8.98-29.52,13.45-44.29c0.2-0.66,0.47-0.86,1.15-0.85
				c2.33,0.04,4.66,0.01,6.99-0.01c1.67-0.01,1.67-0.02,1.89-1.62c0.05-0.33,0.11-0.67,0.09-1c-0.02-0.55,0.22-0.69,0.75-0.72
				c4.62-0.21,9.24-0.45,13.87-0.7C223.34,314.52,224.65,314.41,225.96,314.31z M297.99,316.9c-0.2-0.03-0.33-0.06-0.46-0.07
				c-6.16-0.42-12.31-0.91-18.47-1.24c-5.02-0.27-10.04-0.19-14.99,0.94c-3.49,0.8-6.75,2.1-9.42,4.58
				c-0.28,0.26-0.47,0.75-0.48,1.14c-0.04,0.95,0.08,1.91,0.08,2.86c0.1,12.18,0.17,24.36,0.28,36.54
				c0.07,7.91,0.18,15.83,0.28,23.74c0,0.35,0.05,0.71,0.08,1.2c0.3-0.27,0.49-0.43,0.66-0.6c1.76-1.79,3.85-3.07,6.18-3.98
				c3.9-1.53,7.99-1.94,12.13-1.99c5.06-0.05,10.07,0.56,15.08,1.2c6.67,0.86,13.33,1.76,20.02,2.52c1.96,0.22,3.96,0.03,6.09,0.03
				C306.92,362,300.72,339.93,297.99,316.9z M208.67,316.9c-2.73,23.01-8.92,45.09-17.01,66.74c0.27,0.04,0.44,0.06,0.6,0.08
				c3.63,0.37,7.24,0.02,10.82-0.43c6.59-0.83,13.15-1.83,19.74-2.66c5.41-0.68,10.84-0.95,16.27-0.13
				c4.02,0.61,7.79,1.86,10.97,4.53c0.55,0.46,1.05,0.96,1.7,1.56c0.03-0.52,0.08-0.88,0.08-1.24c0.11-11.64,0.19-23.29,0.32-34.94
				c0.1-9.37,0.24-18.74,0.33-28.11c0-0.41-0.21-0.94-0.51-1.21c-2-1.87-4.4-3.07-6.99-3.89c-5.8-1.83-11.77-1.86-17.75-1.57
				c-3.64,0.17-7.27,0.5-10.91,0.76C213.81,316.55,211.29,316.72,208.67,316.9z M250.06,386.25c-0.08-0.2-0.09-0.26-0.12-0.29
				c-0.08-0.08-0.17-0.15-0.26-0.21c-3.66-2.84-7.96-3.91-12.45-4.35c-5.2-0.51-10.39-0.2-15.53,0.56
				c-6.62,0.97-13.21,2.22-19.83,3.21c-3.71,0.55-7.46,0.85-11.19,1.21c-0.78,0.07-1.58-0.09-2.49-0.15
				c9.03-21.41,16.02-43.24,18.85-66.34c-0.43,0-0.76,0.03-1.09-0.01c-0.7-0.07-1,0.12-1.09,0.93c-0.2,1.98-0.51,3.95-0.85,5.91
				c-1.55,9.1-3.76,18.05-6.64,26.81c-3.51,10.67-7.24,21.27-10.87,31.89c-0.38,1.1-0.76,2.2-1.19,3.43
				c1.08,0.14,2.04,0.32,3.01,0.38c4.14,0.26,8.25-0.13,12.3-0.92c6.6-1.29,13.17-2.7,19.76-4.01c5.56-1.11,11.16-1.97,16.86-1.77
				C241.78,382.68,246.11,383.56,250.06,386.25z M321.37,388.93c-0.75-2.13-1.4-4-2.06-5.88c-4.19-11.89-8.52-23.73-11.96-35.87
				c-2.17-7.66-4.01-15.4-5.14-23.29c-0.19-1.32-0.39-2.65-0.58-3.97c-0.71,0-1.34,0-2.01,0c2.84,23.08,9.84,44.92,18.83,66.25
				c-0.28,0.04-0.44,0.08-0.6,0.09c-3.7,0.36-7.34-0.2-10.96-0.77c-7.2-1.12-14.37-2.41-21.57-3.49c-5.73-0.86-11.5-1.2-17.28-0.46
				c-3.33,0.43-6.54,1.31-9.44,3.07c-0.38,0.23-0.76,0.49-1.12,0.75c-0.34,0.24-0.66,0.51-0.98,0.77c4.13-2.66,8.71-3.52,13.5-3.64
				c4.57-0.11,9.08,0.42,13.54,1.29c6.3,1.22,12.56,2.59,18.85,3.85c4.7,0.94,9.43,1.76,14.26,1.63
				C318.16,389.24,319.68,389.06,321.37,388.93z"/>
			<path d="M251.06,398.53c-0.98-0.38-2.01-0.69-2.94-1.16c-1.25-0.64-2-1.57-1.82-3.16c0.22-2.03,0.24-4.08,0.35-6.26
				c2.43,0.84,4.7,1.7,6.48,3.15c2.27-1.11,4.46-2.19,6.84-3.36c0.07,0.81,0.14,1.32,0.17,1.83c0.08,1.74,0.11,3.48,0.24,5.21
				c0.06,0.8-0.26,1.34-0.79,1.84c-1.02,0.95-2.26,1.42-3.58,1.74c-0.19,0.05-0.37,0.11-0.56,0.16
				C253.98,398.53,252.52,398.53,251.06,398.53z"/>
			<path d="M305.99,376.57c-1.77-0.11-3.41-0.21-5.06-0.33c-7.63-0.57-15.26-1.3-22.9-1.69c-4.99-0.25-9.98,0.24-14.75,1.96
				c-1.28,0.46-2.5,1.09-3.93,1.72c0-0.61-0.08-1.17,0.03-1.69c0.06-0.28,0.39-0.59,0.67-0.74c2.89-1.52,6.01-2.3,9.22-2.73
				c5.93-0.8,11.87-0.54,17.81-0.04c5.62,0.47,11.23,0.95,16.85,1.42c1.51,0.13,1.51,0.11,1.93,1.59
				C305.89,376.15,305.91,376.26,305.99,376.57z"/>
			<path d="M259.38,373.28c-0.04-0.08-0.06-0.11-0.06-0.13c-0.03-2.31-0.39-1.75,1.56-2.69c3.51-1.69,7.31-2.31,11.16-2.59
				c5.93-0.43,11.83,0.08,17.73,0.61c4.44,0.39,8.89,0.72,13.34,1.05c0.52,0.04,0.85,0.14,0.94,0.7c0.07,0.41,0.22,0.8,0.37,1.36
				c-1.52-0.08-2.94-0.13-4.35-0.24c-7.47-0.56-14.93-1.25-22.4-1.64c-4.91-0.26-9.82,0.17-14.51,1.9
				C261.89,372.08,260.67,372.71,259.38,373.28z"/>
			<path d="M302.88,366.77c-1.55-0.1-3.09-0.19-4.62-0.31c-7.49-0.61-14.95-1.64-22.49-1.56c-4.39,0.04-8.74,0.43-12.9,2
				c-1.19,0.45-2.34,1.04-3.6,1.62c0-0.62-0.06-1.21,0.03-1.78c0.03-0.23,0.34-0.48,0.58-0.61c2.7-1.45,5.62-2.22,8.63-2.65
				c5.9-0.84,11.81-0.55,17.72-0.06c4.97,0.41,9.95,0.84,14.92,1.24C302.55,364.78,302.67,364.88,302.88,366.77z"/>
			<path d="M259.36,363.59c-0.06-0.16-0.09-0.22-0.09-0.27c-0.01-2.17-0.34-1.68,1.5-2.57c3.36-1.62,6.97-2.22,10.65-2.49
				c5.81-0.43,11.6,0.1,17.38,0.62c3.82,0.34,7.65,0.62,11.48,0.89c0.53,0.04,0.84,0.18,0.93,0.72c0.07,0.41,0.18,0.81,0.31,1.33
				c-1.26-0.06-2.43-0.08-3.6-0.18c-3.96-0.34-7.93-0.73-11.89-1.06c-6.4-0.54-12.81-0.99-19.19,0.25
				c-2.43,0.47-4.77,1.24-6.92,2.49C259.76,363.41,259.59,363.49,259.36,363.59z"/>
			<path d="M300.28,357.23c-2.05-0.13-3.97-0.21-5.89-0.38c-6.68-0.56-13.32-1.55-20.04-1.51c-4.28,0.02-8.52,0.4-12.52,2.1
				c-0.82,0.35-1.61,0.77-2.42,1.16c-0.52-1.26-0.27-1.99,0.86-2.55c3.24-1.61,6.73-2.24,10.3-2.51c5.42-0.41,10.81,0.11,16.2,0.62
				c3.99,0.38,7.98,0.72,11.98,1c0.83,0.06,1.23,0.29,1.31,1.1C300.1,356.51,300.18,356.75,300.28,357.23z"/>
			<path d="M298.86,352.23c-2.15-0.14-4.25-0.24-6.34-0.42c-6.42-0.54-12.82-1.43-19.29-1.3c-4.84,0.1-9.55,0.73-13.82,3.25
				c-0.52-1.36-0.28-2.03,0.93-2.62c3.28-1.62,6.8-2.24,10.39-2.47c5.82-0.38,11.59,0.22,17.37,0.77c3.01,0.29,6.03,0.51,9.05,0.71
				C298.68,350.25,298.87,350.4,298.86,352.23z"/>
			<path d="M259.22,348.9c0-0.67-0.07-1.21,0.03-1.72c0.05-0.26,0.34-0.55,0.6-0.69c2.61-1.4,5.44-2.06,8.35-2.39
				c5.59-0.63,11.14-0.09,16.7,0.45c3.63,0.35,7.26,0.64,10.89,0.91c1.82,0.13,1.82,0.07,2.01,2.1c-1.75-0.1-3.47-0.16-5.2-0.3
				c-6.48-0.52-12.92-1.54-19.45-1.48c-4.04,0.03-8.01,0.41-11.76,2.06C260.71,348.13,260.05,348.49,259.22,348.9z"/>
			<path d="M296.66,342.59c-0.92,0-1.84,0.07-2.75-0.01c-5.06-0.45-10.1-1.01-15.16-1.39c-5.16-0.39-10.33-0.45-15.35,1.12
				c-1.38,0.43-2.7,1.07-4.05,1.61c-0.49-1.15-0.24-1.89,0.85-2.43c2.87-1.4,5.93-2,9.08-2.27c5.48-0.47,10.93,0.09,16.38,0.62
				c3.13,0.31,6.26,0.56,9.39,0.84C296.54,340.82,296.67,340.98,296.66,342.59z"/>
			<path d="M295.72,337.82c-1.85-0.11-3.63-0.19-5.41-0.33c-5.42-0.42-10.83-1-16.26-1.27c-5.08-0.25-10.09,0.27-14.65,2.87
				c-0.55-1.24-0.31-1.98,0.79-2.52c2.9-1.41,6-1.99,9.18-2.22c5-0.37,9.97,0.12,14.94,0.6c3.29,0.32,6.59,0.61,9.89,0.8
				c1,0.06,1.42,0.37,1.43,1.33C295.63,337.27,295.67,337.46,295.72,337.82z"/>
			<path d="M294.5,331.15c0.11,0.64,0.21,1.21,0.34,1.95c-1.73-0.11-3.37-0.18-5.01-0.31c-5.3-0.44-10.6-1.03-15.91-1.31
				c-5.05-0.27-10.03,0.22-14.58,2.77c-0.53-1.35-0.28-2.01,0.9-2.56c3.55-1.66,7.36-2.22,11.21-2.17c4,0.05,8,0.38,12,0.67
				c3.49,0.25,6.98,0.6,10.47,0.91C294.08,331.11,294.24,331.12,294.5,331.15z"/>
			<path d="M259.12,329.3c0-0.52-0.07-1.06,0.03-1.57c0.05-0.26,0.35-0.54,0.61-0.67c2.42-1.26,5.03-1.87,7.72-2.15
				c5.22-0.55,10.41-0.06,15.61,0.45c3.1,0.3,6.2,0.52,9.3,0.73c1.34,0.09,1.35,0.04,1.48,1.4c0.02,0.16,0.02,0.33,0.04,0.62
				c-0.55,0-1.07,0.04-1.58-0.01c-4.61-0.4-9.21-0.86-13.82-1.22c-5.04-0.39-10.09-0.65-15.03,0.78
				C262.04,328.07,260.66,328.71,259.12,329.3z"/>
			<path d="M293.16,323.52c-2.02-0.12-3.95-0.19-5.87-0.36c-5.81-0.5-11.58-1.45-17.44-1.26c-3.6,0.12-7.08,0.68-10.3,2.42
				c-0.09,0.05-0.2,0.08-0.3,0.11c-0.5-1.49-0.31-1.95,1.03-2.56c2.54-1.15,5.23-1.66,7.98-1.84c4.5-0.29,8.96,0.13,13.43,0.59
				c3.35,0.35,6.7,0.6,10.06,0.85c1.24,0.1,1.25,0.05,1.4,1.26C293.18,322.94,293.16,323.13,293.16,323.52z"/>
			<path d="M247.23,378.09c-1.86-0.72-3.61-1.55-5.45-2.09c-4.98-1.47-10.12-1.73-15.26-1.41c-6.41,0.4-12.8,1.01-19.2,1.52
				c-2.17,0.17-4.35,0.31-6.68,0.47c0.16-0.53,0.29-0.89,0.37-1.26c0.11-0.54,0.37-0.77,0.96-0.8c2.49-0.16,4.98-0.38,7.46-0.59
				c4.3-0.36,8.6-0.8,12.91-1.09c6.48-0.44,12.96-0.57,19.31,1.11c1.53,0.41,2.99,1.1,4.5,1.62c0.94,0.33,1.35,0.91,1.13,1.9
				C247.24,377.67,247.25,377.9,247.23,378.09z"/>
			<path d="M202.24,371.56c0.18-0.62,0.28-1.15,0.5-1.62c0.08-0.19,0.41-0.35,0.64-0.37c6.87-0.57,13.74-1.18,20.62-1.65
				c5.77-0.39,11.56-0.46,17.22,0.97c1.72,0.44,3.36,1.21,5.05,1.79c0.92,0.31,1.27,0.9,1.1,1.84c-0.04,0.24-0.03,0.49-0.05,0.82
				c-0.26-0.11-0.47-0.18-0.65-0.28c-3.38-1.94-7.08-2.76-10.9-3.12c-6.09-0.59-12.15-0.11-18.22,0.44
				c-4.77,0.43-9.55,0.79-14.33,1.18C202.95,371.58,202.67,371.56,202.24,371.56z"/>
			<path d="M247.39,368.58c-0.78-0.4-1.41-0.74-2.07-1.05c-3.46-1.61-7.15-2.23-10.92-2.5c-5.79-0.42-11.55,0.09-17.31,0.63
				c-3.85,0.36-7.71,0.69-11.57,1.02c-0.58,0.05-1.17,0.01-1.83,0.01c0.15-0.54,0.21-1.06,0.45-1.49c0.13-0.24,0.54-0.44,0.84-0.47
				c2.35-0.22,4.7-0.38,7.04-0.58c3.66-0.31,7.32-0.67,10.98-0.92c6.2-0.42,12.4-0.61,18.49,0.94c1.7,0.43,3.31,1.2,4.97,1.79
				c0.75,0.27,1.03,0.76,0.92,1.53C247.35,367.81,247.39,368.14,247.39,368.58z"/>
			<path d="M205.21,361.8c0-0.18-0.01-0.27,0-0.35c0.29-1.64,0.29-1.58,1.94-1.7c3.66-0.26,7.32-0.59,10.98-0.91
				c6.34-0.55,12.69-1.13,19.06-0.41c3.05,0.35,6.02,1.01,8.81,2.35c1.59,0.77,1.64,0.84,1.33,2.76c-0.13-0.04-0.27-0.05-0.38-0.12
				c-3.85-2.26-8.11-3.01-12.48-3.27c-5.93-0.36-11.82,0.22-17.71,0.78c-3.54,0.34-7.1,0.58-10.64,0.86
				C205.83,361.82,205.55,361.8,205.21,361.8z"/>
			<path d="M206.37,357.14c0.15-0.58,0.22-1.08,0.41-1.53c0.08-0.19,0.4-0.37,0.62-0.39c6.34-0.56,12.67-1.16,19.02-1.62
				c5.32-0.39,10.66-0.45,15.88,0.95c1.29,0.35,2.55,0.84,3.78,1.37c1.52,0.66,1.61,0.94,1.21,2.7c-0.13-0.05-0.26-0.08-0.38-0.15
				c-3.54-2.04-7.43-2.78-11.43-3.02c-5.56-0.35-11.09,0.23-16.62,0.76c-3.82,0.37-7.65,0.63-11.48,0.93
				C207.09,357.16,206.78,357.14,206.37,357.14z"/>
			<path d="M207.66,352.14c0.15-0.62,0.24-1.14,0.43-1.62c0.06-0.16,0.36-0.31,0.57-0.33c6.12-0.51,12.23-1.06,18.35-1.47
				c5.13-0.34,10.26-0.4,15.29,0.95c1.29,0.35,2.55,0.83,3.79,1.36c1.52,0.65,1.61,0.92,1.24,2.69c-0.1-0.03-0.21-0.04-0.3-0.09
				c-3.61-2.11-7.59-2.84-11.67-3.06c-5.39-0.29-10.75,0.22-16.11,0.75c-3.62,0.36-7.26,0.58-10.9,0.85
				C208.17,352.19,208.01,352.16,207.66,352.14z"/>
			<path d="M247.34,348.65c-1.82-0.66-3.63-1.42-5.5-1.95c-3.13-0.88-6.37-1.07-9.59-0.89c-4.87,0.28-9.72,0.74-14.58,1.11
				c-2.65,0.2-5.31,0.39-7.96,0.59c-0.27,0.02-0.55,0-0.8,0c-0.03-0.11-0.05-0.13-0.05-0.16c0.18-1.81,0.18-1.75,1.99-1.89
				c4.27-0.33,8.54-0.73,12.81-1.1c5.95-0.52,11.92-1.04,17.83,0.27c1.6,0.35,3.16,0.95,4.69,1.55
				C247.62,346.75,247.74,347.17,247.34,348.65z"/>
			<path d="M247.32,343.99c-0.18-0.07-0.36-0.12-0.52-0.21c-3.14-1.74-6.56-2.4-10.08-2.66c-5.57-0.42-11.09,0.23-16.62,0.77
				c-3.1,0.3-6.2,0.52-9.3,0.77c-0.27,0.02-0.54,0-0.91,0c0.12-0.58,0.16-1.05,0.32-1.49c0.07-0.19,0.36-0.41,0.57-0.43
				c6.48-0.56,12.96-1.19,19.45-1.61c4.72-0.31,9.43-0.08,13.97,1.44c0.69,0.23,1.36,0.51,2.02,0.82
				C247.6,342.03,247.75,342.39,247.32,343.99z"/>
			<path d="M211.01,337.75c-0.03-0.16-0.05-0.22-0.05-0.27c0.19-1.59,0.19-1.59,1.76-1.72c5.34-0.46,10.67-0.98,16.01-1.36
				c4.85-0.35,9.7-0.39,14.45,0.95c1.05,0.3,2.07,0.7,3.07,1.13c1.4,0.61,1.51,0.93,1.08,2.59c-0.15-0.06-0.31-0.1-0.45-0.18
				c-3.16-1.77-6.61-2.43-10.17-2.64c-4.58-0.26-9.13,0.12-13.69,0.57c-3.71,0.37-7.43,0.62-11.15,0.92
				C211.62,337.77,211.34,337.75,211.01,337.75z"/>
			<path d="M247.38,334.23c-0.18-0.07-0.36-0.13-0.53-0.22c-3.08-1.67-6.42-2.29-9.86-2.5c-5.09-0.31-10.14,0.27-15.19,0.78
				c-3.01,0.3-6.04,0.5-9.05,0.74c-0.27,0.02-0.55,0-0.78,0c-0.05-0.1-0.07-0.13-0.07-0.15c0.13-1.74,0.13-1.72,1.85-1.87
				c5.06-0.44,10.11-0.95,15.17-1.33c5.11-0.38,10.21-0.45,15.18,1.11c0.75,0.23,1.48,0.53,2.19,0.85
				C247.67,332.26,247.79,332.55,247.38,334.23z"/>
			<path d="M247.54,329.38c-0.23-0.08-0.36-0.1-0.48-0.17c-3.46-1.89-7.22-2.48-11.1-2.59c-4.47-0.13-8.9,0.34-13.34,0.78
				c-2.96,0.29-5.92,0.49-8.88,0.72c-0.3,0.02-0.6,0-0.86,0c-0.07-0.13-0.12-0.18-0.12-0.23c0.07-1.77,0.08-1.7,1.85-1.82
				c3.63-0.26,7.26-0.6,10.89-0.92c5.31-0.46,10.63-0.94,15.92,0.11c1.74,0.35,3.41,1.06,5.11,1.59c0.81,0.25,1.18,0.76,1.02,1.63
				C247.5,328.75,247.54,329.03,247.54,329.38z"/>
			<path d="M213.44,323.44c0.09-0.68,0.16-1.25,0.25-1.88c1.04-0.06,2.04-0.1,3.04-0.19c3.35-0.3,6.7-0.63,10.05-0.94
				c5.34-0.5,10.69-0.97,15.99,0.25c1.22,0.28,2.42,0.72,3.58,1.19c1.43,0.58,1.52,0.89,1.08,2.57c-0.71-0.33-1.41-0.68-2.13-0.97
				c-2.47-1-5.07-1.43-7.71-1.55c-4.56-0.21-9.07,0.28-13.6,0.76c-3.18,0.33-6.37,0.51-9.56,0.75
				C214.15,323.46,213.84,323.44,213.44,323.44z"/>
		</g>
		<g>
			<path class="st1" d="M327.7,309.61c-0.34-0.21-0.66-0.41-1.05-0.65c-0.39,0.53-0.78,1.03-1.14,1.54
				c-6.76,9.68-13.51,19.36-20.27,29.03c-2.8,4.01-5.63,8.01-8.43,12.02c-1.79,2.56-4.02,4.69-6.39,6.69
				c-0.11,0.1-0.44,0.08-0.58-0.01c-1.48-0.99-2.94-2.01-4.42-3c-0.36-0.24-0.2-0.47-0.1-0.74c1.38-3.59,3.25-6.89,5.48-10.04
				c9.47-13.35,18.84-26.77,28.25-40.17c0.1-0.14,0.19-0.29,0.33-0.49c-0.37-0.2-0.72-0.39-1.1-0.6c0.83-1.15,1.57-2.18,2.33-3.23
				c1.41,0.31,1.62,0.19,2.56-1.09c2.57-3.49,5.12-6.99,7.78-10.41c1.64-2.1,3.46-4.06,5.21-6.1c-0.24-0.38-0.46-0.35-0.75-0.02
				c-1.96,2.29-4.02,4.5-5.87,6.88c-2.36,3.04-4.56,6.2-6.84,9.31c-0.24,0.32-0.52,0.63-0.83,0.88c-0.3,0.23-0.64,0.21-0.95-0.05
				c-0.34-0.3-0.2-0.59,0-0.87c1.35-1.89,2.68-3.79,4.07-5.65c2.72-3.64,5.6-7.16,8.82-10.38c0.55-0.55,1.09-1.09,1.67-1.6
				c0.13-0.11,0.46-0.16,0.57-0.08c2.1,1.52,4.19,3.06,6.35,4.65C338.54,293.91,333.22,301.78,327.7,309.61z M327.84,308.4
				c0.18-0.16,0.34-0.31,0.52-0.47c-2.92-1.99-5.74-3.91-8.59-5.86c-0.13,0.24-0.22,0.41-0.35,0.63
				C322.26,304.62,325.07,306.53,327.84,308.4z"/>
			<path class="st1" d="M285.53,355.86c1.11,0.88,2.32,1.84,3.62,2.86c-1.58,2.18-3.29,4.55-5.02,6.95
				c-1.26-0.9-2.48-1.78-3.78-2.72C282.01,360.67,283.72,358.34,285.53,355.86z"/>
			<path class="st1" d="M336.64,280.09c0.47-0.48,1.07-1.17,1.74-1.76c0.74-0.65,1.65-0.82,2.61-0.56c1.11,0.3,2,0.93,2.6,1.91
				c0.53,0.86,0.51,1.78,0.06,2.66c-0.35,0.68-0.78,1.33-1.23,2.1C340.47,282.96,338.57,281.54,336.64,280.09z"/>
			<path class="st1" d="M278.32,369.84c0.29-1.78,0.56-3.43,1.45-4.9c0.21-0.35,0.3-0.78,0.43-1.11c1.02,0.71,2.15,1.5,3.17,2.21
				c-0.25,0.21-0.61,0.44-0.89,0.74c-1.07,1.16-2.33,2.07-3.69,2.85C278.67,369.69,278.55,369.73,278.32,369.84z"/>
		</g>
	</g>
</g>
<g>
	<path d="M264.34,108.04c0.03,14.99-12.08,27.18-27.03,27.2c-15.04,0.02-27.25-12.05-27.28-26.96c-0.03-15.11,12.03-27.33,27-27.35
		C252.18,80.92,264.31,92.96,264.34,108.04z M262.27,108.14c0.04-13.82-11.23-25.11-25.08-25.13
		c-13.77-0.02-25.02,11.19-25.08,25.01c-0.06,13.82,11.2,25.14,25.05,25.16C250.96,133.2,262.24,121.96,262.27,108.14z"/>
	<path d="M238.23,70.6c0,1.72,0.01,3.45,0,5.17c0,0.78-0.52,1.27-1.2,1.18c-0.51-0.07-0.88-0.49-0.88-1.08
		c-0.01-3.52-0.01-7.05,0-10.57c0-0.65,0.42-1.05,1.02-1.06c0.62-0.01,1.05,0.41,1.06,1.08C238.24,67.08,238.23,68.84,238.23,70.6z"
		/>
	<path d="M199.65,107.04c1.7,0,3.41,0,5.11,0c0.82,0,1.29,0.39,1.3,1.04c0.01,0.66-0.46,1.06-1.27,1.06c-3.41,0-6.81,0-10.22,0
		c-0.78,0-1.22-0.39-1.23-1.03c-0.01-0.66,0.42-1.05,1.2-1.06C196.24,107.04,197.94,107.04,199.65,107.04z"/>
	<path d="M274.66,107.04c1.7,0,3.41,0,5.11,0c0.81,0,1.27,0.39,1.27,1.05c0,0.66-0.46,1.04-1.28,1.05c-3.39,0-6.77,0-10.16,0
		c-0.76,0-1.22-0.35-1.28-0.94c-0.07-0.67,0.43-1.16,1.23-1.16C271.26,107.04,272.96,107.04,274.66,107.04z"/>
	<path d="M236.14,145.57c0-1.64,0-3.29,0-4.93c0-0.14-0.01-0.28,0.01-0.41c0.06-0.6,0.48-0.99,1.03-1c0.55,0,0.98,0.39,1.05,0.98
		c0.02,0.15,0.01,0.31,0.01,0.47c0,3.33,0,6.66,0.01,9.98c0,0.56-0.14,1.02-0.7,1.23c-0.73,0.27-1.39-0.25-1.39-1.1
		C236.14,149.05,236.14,147.31,236.14,145.57C236.14,145.57,236.14,145.57,236.14,145.57z"/>
	<path d="M259.88,129.65c0.37,0.23,0.67,0.34,0.88,0.54c2.47,2.45,4.93,4.91,7.38,7.38c0.48,0.49,0.5,1.08,0.09,1.51
		c-0.44,0.46-1.05,0.45-1.55-0.05c-2.48-2.47-4.95-4.94-7.42-7.42c-0.36-0.36-0.5-0.8-0.23-1.22
		C259.21,130.11,259.56,129.92,259.88,129.65z"/>
	<path d="M268.66,77.73c-0.22,0.37-0.33,0.68-0.54,0.89c-2.43,2.46-4.88,4.9-7.33,7.34c-0.52,0.52-1.18,0.54-1.6,0.09
		c-0.41-0.44-0.37-1.06,0.13-1.56c2.44-2.45,4.89-4.89,7.33-7.34c0.35-0.35,0.78-0.55,1.21-0.3
		C268.17,77.05,268.38,77.42,268.66,77.73z"/>
	<path d="M206.82,139.56c-0.32-0.29-0.68-0.5-0.87-0.82c-0.24-0.41-0.07-0.83,0.27-1.16c1.36-1.35,2.71-2.71,4.06-4.06
		c1.13-1.13,2.27-2.26,3.4-3.39c0.36-0.36,0.79-0.42,1.23-0.2c0.46,0.23,0.62,0.65,0.51,1.13c-0.05,0.21-0.19,0.43-0.35,0.59
		c-2.45,2.47-4.91,4.93-7.38,7.38C207.5,139.24,207.2,139.34,206.82,139.56z"/>
	<path d="M206.84,76.63c0.38,0.22,0.68,0.33,0.89,0.54c2.47,2.45,4.93,4.91,7.38,7.37c0.46,0.46,0.48,1.1,0.08,1.52
		c-0.42,0.44-1.07,0.43-1.56-0.06c-2.46-2.45-4.92-4.92-7.38-7.37c-0.35-0.35-0.53-0.79-0.29-1.21
		C206.14,77.1,206.52,76.9,206.84,76.63z"/>
	<path d="M208.51,120.63c-0.14,0.16-0.34,0.57-0.66,0.71c-1.53,0.69-3.09,1.32-4.64,1.94c-0.59,0.24-1.15,0.01-1.38-0.51
		c-0.25-0.56-0.03-1.13,0.58-1.39c1.54-0.66,3.09-1.3,4.65-1.93C207.78,119.17,208.52,119.67,208.51,120.63z"/>
	<path d="M223.16,72.62c0.16,0.14,0.57,0.34,0.71,0.66c0.69,1.55,1.33,3.12,1.96,4.7c0.23,0.59-0.02,1.12-0.58,1.35
		c-0.53,0.22-1.09-0.01-1.34-0.59c-0.65-1.55-1.3-3.09-1.92-4.65C221.7,73.35,222.18,72.63,223.16,72.62z"/>
	<path d="M208.5,95.54c0.02,0.93-0.69,1.48-1.37,1.21c-1.62-0.63-3.22-1.31-4.81-2c-0.55-0.24-0.73-0.8-0.51-1.33
		c0.21-0.49,0.74-0.78,1.25-0.58c1.63,0.64,3.26,1.31,4.87,2.03C208.22,95,208.39,95.4,208.5,95.54z"/>
	<path d="M271.58,92.79c0.56,0.05,0.9,0.29,1.04,0.79c0.14,0.49-0.09,0.97-0.59,1.2c-0.64,0.29-1.29,0.55-1.94,0.82
		c-0.9,0.37-1.8,0.75-2.71,1.11c-0.62,0.25-1.17,0.02-1.41-0.54c-0.22-0.53-0.01-1.1,0.57-1.35c1.54-0.66,3.1-1.29,4.65-1.93
		C271.32,92.84,271.48,92.82,271.58,92.79z"/>
	<path d="M251.23,72.63c0.91,0,1.45,0.68,1.19,1.35c-0.63,1.64-1.32,3.26-2.01,4.87c-0.23,0.52-0.79,0.69-1.29,0.49
		c-0.52-0.21-0.81-0.76-0.6-1.3c0.64-1.61,1.3-3.22,2.01-4.8C250.67,72.93,251.08,72.75,251.23,72.63z"/>
	<path d="M252.48,142.44c-0.02,0.59-0.28,0.94-0.76,1.07c-0.52,0.14-0.94-0.06-1.18-0.52c-0.22-0.41-0.37-0.86-0.55-1.29
		c-0.46-1.1-0.91-2.2-1.37-3.3c-0.3-0.72-0.12-1.26,0.48-1.53c0.59-0.26,1.14,0,1.43,0.7c0.61,1.46,1.21,2.92,1.81,4.38
		C252.41,142.13,252.45,142.32,252.48,142.44z"/>
	<path d="M271.54,123.39c-0.11-0.03-0.29-0.06-0.45-0.13c-1.5-0.62-3-1.23-4.49-1.86c-0.67-0.28-0.9-0.84-0.64-1.41
		c0.24-0.52,0.76-0.76,1.32-0.54c1.58,0.63,3.15,1.28,4.71,1.94c0.51,0.22,0.74,0.64,0.62,1.19
		C272.51,123.09,272.14,123.35,271.54,123.39z"/>
	<path d="M223.16,143.56c-0.95-0.01-1.47-0.71-1.19-1.4c0.63-1.6,1.29-3.18,1.97-4.76c0.23-0.55,0.8-0.75,1.32-0.54
		c0.54,0.22,0.81,0.78,0.58,1.35c-0.63,1.58-1.27,3.15-1.96,4.7C223.73,143.22,223.32,143.42,223.16,143.56z"/>
</g>
</svg>
